<svg xmlns="http://www.w3.org/2000/svg" version="1.1" xmlns:xlink="http://www.w3.org/1999/xlink" width="1000" height="1000"><style>
    #light-icon {
      display: inline;
    }
    #dark-icon {
      display: none;
    }

    @media (prefers-color-scheme: dark) {
      #light-icon {
        display: none;
      }
      #dark-icon {
        display: inline;
      }
    }
  </style><g id="light-icon"><svg xmlns="http://www.w3.org/2000/svg" version="1.1" xmlns:xlink="http://www.w3.org/1999/xlink" width="1000" height="1000"><g><g transform="matrix(1.0433621301281248,0,0,1.0433621301281248,32.756354075372485,0)"><svg xmlns="http://www.w3.org/2000/svg" version="1.1" xmlns:xlink="http://www.w3.org/1999/xlink" width="895.65" height="958.44"><svg xmlns="http://www.w3.org/2000/svg" viewBox="0 0 895.65 958.44">
  <defs>
    <style>
      .c {
        fill: #ffdaa4;
      }

      .d {
        fill: #ffa312;
      }
    </style>
  </defs>
  <g id="a" data-name="Layer1">
    <path d="M625.53,958.44c-24.93,0-41.56-16.62-41.56-41.56v-162.07c4.16-33.25-8.31-58.18-29.09-78.96-12.47-12.47-16.62-29.09-8.31-41.56,4.16-16.62,20.78-24.93,33.25-29.09,120.51-12.47,232.72-54.02,232.72-249.34,0-45.71-16.62-91.42-49.87-128.83-12.47-12.47-12.47-29.09-8.31-41.56,12.47-33.25,12.47-66.49,4.16-99.74-20.78,4.16-54.02,16.62-108.05,54.02-8.31,8.31-20.78,8.31-33.25,4.16-87.27-24.93-182.85-24.93-270.12,0-12.47,4.16-24.93,4.16-37.4-4.16-49.87-37.4-87.27-49.87-108.05-54.02-8.31,33.25-8.31,66.49,4.16,99.74,4.16,16.62,4.16,33.25-8.31,41.56-33.25,37.4-49.87,83.11-49.87,128.83,0,195.32,112.2,236.87,232.72,249.34,16.62,0,29.09,12.47,33.25,29.09s0,33.25-8.31,41.56c-20.78,20.78-29.09,45.71-29.09,74.8v162.07c0,24.93-16.62,41.56-41.56,41.56s-41.56-16.62-41.56-41.56v-70.65c-124.67,20.78-178.69-49.87-216.09-95.58-16.62-20.78-29.09-37.4-45.71-41.56-20.78-4.16-37.4-29.09-29.09-49.87,4.16-20.78,29.09-37.4,49.87-29.09,41.56,12.47,66.49,41.56,91.42,70.65,33.25,45.71,62.33,78.96,149.6,62.33v-4.16c0-24.93,4.16-54.02,12.47-74.8-116.36-24.93-241.03-99.74-241.03-319.99,0-62.33,20.78-120.51,58.18-166.23-16.62-58.18-12.47-112.2,12.47-166.23,4.16-12.47,12.47-20.78,24.93-24.93,16.62-4.16,70.65-12.47,182.85,58.18,91.42-20.78,187-20.78,274.27,0C725.27-9.82,783.45-1.51,800.07,2.64c12.47,4.16,20.78,12.47,24.93,24.93,20.78,54.02,24.93,108.05,12.47,162.07,37.4,45.71,58.18,103.89,58.18,166.23,0,236.87-141.29,299.21-241.03,324.14,8.31,24.93,12.47,54.02,12.47,78.96v157.91c0,24.93-16.62,41.56-41.56,41.56Z"></path>
  </g>
  <g id="b" data-name="Layer2">
    <path class="d" d="M610.9,279.82l-55.79,62.04c-20.72,23.09-16.37,55.4,9.62,71.32l55.09,33.74c27.76,17.03,30.52,52.38,5.79,75.18l-196.94,181.57,59.77-127.03c13.76-29.25-5.12-60.75-39.71-66.25l-68.66-10.93c-33.16-5.29-52.19-34.58-41.07-63.17l88.63-227.19c11.04-28.31,46.93-43.81,77.85-33.66l83.88,27.57c35.11,11.51,45.84,49.76,21.55,76.8Z"></path>
    <path class="c" d="M346.71,355.07c8.71,42.41,48.41,70.08,88.68,61.82,40.27-8.27,65.86-49.35,57.15-91.76h0c-8.71-42.42-48.41-70.1-88.68-61.83-40.27,8.27-65.86,49.35-57.15,91.76h0Z"></path>
  </g>
</svg></svg></g></g></svg></g><g id="dark-icon"><svg xmlns="http://www.w3.org/2000/svg" version="1.1" xmlns:xlink="http://www.w3.org/1999/xlink" width="1000" height="1000"><g clip-path="url(#SvgjsClipPath1045)"><rect width="1000" height="1000" fill="#ffffff"></rect><g transform="matrix(0.8346897041024999,0,0,0.8346897041024999,126.20508326029801,100)"><svg xmlns="http://www.w3.org/2000/svg" version="1.1" xmlns:xlink="http://www.w3.org/1999/xlink" width="895.65" height="958.44"><svg xmlns="http://www.w3.org/2000/svg" viewBox="0 0 895.65 958.44">
  <defs>
    <style>
      .c {
        fill: #ffdaa4;
      }

      .d {
        fill: #ffa312;
      }
    </style>
  <clipPath id="SvgjsClipPath1045"><rect width="1000" height="1000" x="0" y="0" rx="300" ry="300"></rect></clipPath></defs>
  <g id="a" data-name="Layer1">
    <path d="M625.53,958.44c-24.93,0-41.56-16.62-41.56-41.56v-162.07c4.16-33.25-8.31-58.18-29.09-78.96-12.47-12.47-16.62-29.09-8.31-41.56,4.16-16.62,20.78-24.93,33.25-29.09,120.51-12.47,232.72-54.02,232.72-249.34,0-45.71-16.62-91.42-49.87-128.83-12.47-12.47-12.47-29.09-8.31-41.56,12.47-33.25,12.47-66.49,4.16-99.74-20.78,4.16-54.02,16.62-108.05,54.02-8.31,8.31-20.78,8.31-33.25,4.16-87.27-24.93-182.85-24.93-270.12,0-12.47,4.16-24.93,4.16-37.4-4.16-49.87-37.4-87.27-49.87-108.05-54.02-8.31,33.25-8.31,66.49,4.16,99.74,4.16,16.62,4.16,33.25-8.31,41.56-33.25,37.4-49.87,83.11-49.87,128.83,0,195.32,112.2,236.87,232.72,249.34,16.62,0,29.09,12.47,33.25,29.09s0,33.25-8.31,41.56c-20.78,20.78-29.09,45.71-29.09,74.8v162.07c0,24.93-16.62,41.56-41.56,41.56s-41.56-16.62-41.56-41.56v-70.65c-124.67,20.78-178.69-49.87-216.09-95.58-16.62-20.78-29.09-37.4-45.71-41.56-20.78-4.16-37.4-29.09-29.09-49.87,4.16-20.78,29.09-37.4,49.87-29.09,41.56,12.47,66.49,41.56,91.42,70.65,33.25,45.71,62.33,78.96,149.6,62.33v-4.16c0-24.93,4.16-54.02,12.47-74.8-116.36-24.93-241.03-99.74-241.03-319.99,0-62.33,20.78-120.51,58.18-166.23-16.62-58.18-12.47-112.2,12.47-166.23,4.16-12.47,12.47-20.78,24.93-24.93,16.62-4.16,70.65-12.47,182.85,58.18,91.42-20.78,187-20.78,274.27,0C725.27-9.82,783.45-1.51,800.07,2.64c12.47,4.16,20.78,12.47,24.93,24.93,20.78,54.02,24.93,108.05,12.47,162.07,37.4,45.71,58.18,103.89,58.18,166.23,0,236.87-141.29,299.21-241.03,324.14,8.31,24.93,12.47,54.02,12.47,78.96v157.91c0,24.93-16.62,41.56-41.56,41.56Z"></path>
  </g>
  <g id="b" data-name="Layer2">
    <path class="d" d="M610.9,279.82l-55.79,62.04c-20.72,23.09-16.37,55.4,9.62,71.32l55.09,33.74c27.76,17.03,30.52,52.38,5.79,75.18l-196.94,181.57,59.77-127.03c13.76-29.25-5.12-60.75-39.71-66.25l-68.66-10.93c-33.16-5.29-52.19-34.58-41.07-63.17l88.63-227.19c11.04-28.31,46.93-43.81,77.85-33.66l83.88,27.57c35.11,11.51,45.84,49.76,21.55,76.8Z"></path>
    <path class="c" d="M346.71,355.07c8.71,42.41,48.41,70.08,88.68,61.82,40.27-8.27,65.86-49.35,57.15-91.76h0c-8.71-42.42-48.41-70.1-88.68-61.83-40.27,8.27-65.86,49.35-57.15,91.76h0Z"></path>
  </g>
</svg></svg></g></g></svg></g></svg>